<svg width="47" height="48" viewBox="0 0 47 48" fill="none" xmlns="http://www.w3.org/2000/svg">
<path d="M42.6674 28.1195C40.8356 26.2555 38.4819 25.0807 35.9316 24.7346V5.66345C35.9316 2.54077 33.3909 0 30.2682 0H5.69507C2.57202 0 0.03125 2.54077 0.03125 5.66345V38.239C0.03125 41.3621 2.57202 43.9028 5.6947 43.9028H25.4587C27.6827 46.5154 30.8805 48 34.3401 48C40.7799 48 46.0189 42.7573 46.0189 36.3131C46.0189 33.2281 44.8287 30.3182 42.6674 28.1195V28.1195ZM2.84375 38.239V5.66345C2.84375 4.09167 4.12292 2.8125 5.69507 2.8125H30.2682C31.8403 2.8125 33.1191 4.09167 33.1191 5.66345V24.6899C27.251 25.3026 22.6613 30.2812 22.6613 36.3131C22.6613 37.9849 23.0099 39.6013 23.6786 41.09H5.69507C4.12292 41.09 2.84375 39.8112 2.84375 38.239ZM34.3401 45.1875C31.5316 45.1875 28.9498 43.8981 27.2561 41.6503C26.0901 40.1023 25.4734 38.257 25.4734 36.3131C25.4734 31.4198 29.4512 27.4387 34.3401 27.4387C34.3862 27.4387 34.4327 27.4395 34.4789 27.4402L34.5005 27.4406C36.8344 27.4819 39.0225 28.4231 40.6616 30.0908C42.3026 31.7604 43.2064 33.9705 43.2064 36.3131C43.2064 41.2064 39.229 45.1875 34.3401 45.1875V45.1875Z" fill="#FF5A30"/>
</svg>
